<?xml version="1.0" standalone="no"?>
<!DOCTYPE svg PUBLIC "-//W3C//DTD SVG 20010904//EN"
 "http://www.w3.org/TR/2001/REC-SVG-20010904/DTD/svg10.dtd">
<svg version="1.0" xmlns="http://www.w3.org/2000/svg"
 width="827.000000pt" height="827.000000pt" viewBox="0 0 827.000000 827.000000"
 preserveAspectRatio="xMidYMid meet">
<metadata>
Created by potrace 1.14, written by Peter Selinger 2001-2017
</metadata>
<g transform="translate(0.000000,827.000000) scale(0.100000,-0.100000)"
fill="#000000" stroke="none">
<path d="M1005 7542 c5 -37 42 -134 90 -237 68 -148 79 -170 85 -175 3 -3 17
-26 30 -52 14 -27 28 -48 32 -48 5 0 8 -6 8 -12 0 -15 115 -182 171 -250 21
-26 39 -48 39 -50 0 -18 297 -321 399 -408 35 -30 73 -63 83 -72 10 -10 22
-18 27 -18 5 0 11 -4 13 -8 5 -13 192 -152 303 -225 55 -37 105 -70 110 -74 6
-4 23 -15 38 -23 117 -66 233 -136 238 -143 3 -5 9 -8 13 -7 7 2 96 -40 106
-50 9 -9 140 -71 143 -68 1 2 14 -4 27 -13 21 -14 135 -66 245 -114 85 -36
204 -85 209 -85 2 0 17 -5 33 -12 15 -6 30 -12 33 -13 3 -1 16 -6 30 -12 98
-40 630 -220 670 -226 8 -2 21 -6 28 -10 6 -5 12 -6 12 -2 0 3 16 -1 35 -9 19
-8 35 -12 35 -9 0 3 7 0 15 -7 8 -7 15 -10 15 -7 0 3 15 1 33 -4 116 -36 513
-135 677 -170 52 -11 104 -22 115 -25 11 -3 40 -9 65 -14 25 -5 56 -12 70 -15
14 -3 36 -8 50 -11 14 -2 36 -7 50 -10 14 -3 35 -8 48 -10 12 -2 32 -6 45 -8
86 -17 246 -48 267 -51 14 -2 39 -7 55 -10 63 -12 151 -28 170 -30 18 -3 56
-9 170 -30 17 -3 62 -10 100 -16 39 -6 71 -12 73 -14 4 -4 -28 -68 -38 -75 -4
-3 -13 -16 -20 -30 -45 -85 -287 -350 -430 -470 -35 -30 -70 -59 -76 -65 -6
-5 -26 -21 -44 -35 -19 -14 -41 -32 -50 -40 -9 -8 -38 -31 -66 -49 -27 -19
-51 -38 -54 -41 -12 -16 -476 -328 -634 -427 -43 -27 -195 -120 -344 -211 -20
-12 -46 -27 -57 -32 -11 -6 -29 -16 -40 -22 -45 -30 -122 -74 -255 -146 -36
-20 -66 -40 -68 -44 -2 -4 -8 -8 -13 -8 -6 0 -60 -28 -122 -62 -239 -131 -982
-508 -1004 -509 -5 0 -23 -9 -40 -21 -18 -11 -33 -16 -33 -11 0 4 -4 3 -8 -2
-4 -6 -50 -30 -102 -54 -399 -183 -500 -228 -505 -223 -3 3 -5 0 -5 -6 0 -7
-4 -12 -9 -12 -5 0 -40 -14 -78 -32 -37 -17 -69 -31 -70 -30 -2 1 -122 -51
-178 -78 -76 -36 -201 -87 -204 -84 -4 4 36 92 60 134 5 8 14 26 19 40 6 14
13 32 17 40 3 8 7 17 8 20 1 3 9 22 18 43 36 80 46 107 39 107 -4 0 -2 4 4 8
7 4 24 41 39 82 28 78 75 218 79 235 2 6 9 30 16 55 7 25 15 50 16 55 35 139
56 225 59 245 2 14 6 34 8 45 9 38 23 139 33 227 2 21 6 57 9 80 7 62 7 334 0
398 -3 30 -8 79 -10 108 -2 29 -6 61 -9 70 -3 9 -8 37 -11 62 -14 106 -83 345
-132 460 -31 72 -103 211 -138 265 -19 30 -35 59 -35 64 0 5 -7 11 -14 14 -9
4 -13 1 -11 -6 5 -14 10 -56 22 -172 14 -145 7 -528 -11 -635 -3 -14 -14 -81
-26 -150 -11 -69 -28 -152 -37 -185 -8 -33 -17 -69 -19 -80 -2 -11 -15 -58
-29 -105 -14 -47 -27 -89 -28 -95 -7 -25 -29 -93 -42 -125 -7 -19 -27 -73 -45
-120 -33 -88 -41 -108 -83 -201 -110 -244 -236 -472 -405 -734 -49 -75 -220
-321 -259 -370 -13 -16 -27 -34 -31 -40 -4 -5 -28 -37 -52 -70 -25 -33 -49
-65 -55 -71 -5 -6 -19 -23 -30 -38 -11 -16 -25 -33 -30 -40 -6 -6 -28 -33 -50
-61 -80 -100 -226 -276 -274 -331 -74 -83 -107 -122 -140 -162 -18 -23 -47
-57 -65 -75 -17 -19 -49 -56 -71 -82 -22 -26 -46 -54 -54 -62 -12 -12 -7 -13
40 -8 30 4 70 9 89 11 71 7 207 24 245 31 17 3 41 6 55 8 32 4 158 23 190 29
14 3 66 12 115 20 50 9 101 18 115 21 14 3 41 8 60 11 19 3 43 7 52 10 10 3
30 7 45 10 16 3 35 7 43 9 8 2 30 7 47 10 57 9 334 74 453 106 63 17 122 33
130 35 28 6 155 42 187 52 17 6 34 8 37 4 3 -3 6 -1 6 5 0 5 6 10 13 10 6 0
53 13 102 28 50 16 92 29 95 30 31 8 128 40 140 46 8 4 58 22 110 39 93 30
215 73 255 90 11 4 70 27 130 50 133 51 323 130 423 176 41 19 76 34 78 34 9
0 176 81 409 197 258 129 316 159 495 255 172 92 185 99 355 195 33 19 72 40
88 46 15 6 27 15 27 19 0 4 4 8 9 8 8 0 110 59 228 132 34 21 67 38 73 38 5 0
10 4 10 9 0 5 8 12 18 15 20 8 47 23 89 54 17 12 36 22 41 22 6 0 17 6 24 13
7 7 54 38 103 70 50 31 95 60 100 64 6 5 37 26 70 47 100 64 360 249 363 258
2 4 9 8 14 8 6 0 18 7 27 15 9 9 48 39 86 68 39 28 72 54 75 57 3 4 23 19 45
35 22 17 42 32 45 35 3 3 28 23 55 45 49 39 90 73 126 108 11 9 21 17 24 17 3
0 16 10 29 23 12 12 46 42 75 67 29 25 74 65 101 90 26 25 94 88 150 140 173
160 548 540 668 678 9 10 42 47 72 82 30 34 60 68 65 74 6 6 35 40 65 76 30
36 57 67 60 70 3 3 23 28 45 55 21 28 42 52 45 55 11 10 79 100 195 256 133
179 126 169 195 274 28 41 58 86 67 99 32 43 83 126 95 154 7 15 16 27 20 27
4 0 8 5 8 11 0 6 9 24 21 40 14 21 17 29 7 30 -7 1 -24 2 -38 4 -14 1 -71 5
-126 9 -56 3 -128 8 -160 11 -33 3 -97 8 -144 11 -47 3 -103 7 -125 9 -22 2
-74 6 -115 9 -41 3 -104 8 -140 11 -91 7 -192 15 -280 20 -85 5 -181 12 -290
21 -125 11 -162 14 -228 18 -66 5 -159 14 -227 21 -22 3 -67 7 -100 11 -33 3
-80 7 -105 10 -56 6 -120 12 -185 18 -51 5 -121 14 -165 21 -14 2 -45 6 -70 9
-153 18 -168 20 -220 31 -14 3 -43 7 -65 10 -22 3 -49 7 -60 9 -11 2 -40 7
-65 11 -25 4 -54 9 -65 11 -11 3 -51 11 -90 19 -38 8 -81 17 -95 19 -14 3 -38
8 -55 12 -16 3 -66 14 -110 25 -44 10 -91 20 -105 23 -81 14 -669 169 -795
210 -5 1 -23 6 -40 10 -16 4 -37 10 -45 13 -8 3 -22 7 -30 9 -44 9 -616 196
-655 214 -11 5 -54 21 -95 36 -80 27 -298 108 -340 126 -14 6 -34 14 -45 18
-37 14 -109 43 -150 61 -22 9 -74 31 -115 47 -79 32 -288 122 -386 167 -33 15
-81 38 -109 50 -27 13 -126 61 -220 106 -93 46 -172 83 -175 84 -3 1 -32 15
-65 32 -33 17 -94 48 -135 69 -41 21 -77 41 -80 44 -9 10 -217 110 -228 110
-7 0 -12 5 -12 10 0 6 -3 9 -7 8 -14 -2 -81 31 -87 44 -3 7 -4 -2 -1 -20z"/>
</g>
</svg>
