<svg xmlns="http://www.w3.org/2000/svg" xmlns:xlink="http://www.w3.org/1999/xlink" viewBox="0 0 687.87 127.78"><defs><style>.cls-1{fill:url(#New_Gradient_Swatch_1);}.cls-2{fill:none;}.cls-3{fill:#666;}</style><linearGradient id="New_Gradient_Swatch_1" y1="68.55" x2="142.27" y2="68.55" gradientUnits="userSpaceOnUse"><stop offset="0" stop-color="#ff7e15"/><stop offset="1" stop-color="#ed9c00"/></linearGradient></defs><g id="Layer_2" data-name="Layer 2"><g id="Layer_1-2" data-name="Layer 1"><path class="cls-1" d="M142,41.47c-2.28-.15-4.56-.35-6.83-.49-2.64-.15-5.27-.4-7.9-.6-7.3-.46-14.59-1-21.86-1.8-5.54-.59-11.09-1.26-16.54-2.39A250.75,250.75,0,0,1,51.74,25.47Q42.68,22.08,33.9,18q-4.38-2-8.69-4.26c-1.49-.76-3-1.55-4.45-2.34C20.15,11,17.23,9.93,17,9.32c5.09,16.55,20.37,28,36.19,35C70.79,52.18,89.84,56,108.81,59.17c-3.9,6.67-10.18,11.57-16.54,16C73,88.44,51.71,98.58,30.19,107.84,34.05,100,37,91.67,37.65,83s-1.22-17.72-6.27-24.81c2.2,13-1.48,26.43-7.74,38S8.65,117.84,0,127.78a183.38,183.38,0,0,0,64.12-18.92c16.7-8.48,33.34-18.11,47.18-30.72,11.73-10.69,22.81-22.82,31-36.65Z"/><path class="cls-2" d="M244.06,54.6a20.9,20.9,0,0,0-11.24-3.15q-8.94,0-14.71,4a23.17,23.17,0,0,0-8.35,10.07,31.56,31.56,0,0,0-2.57,12.4,24.08,24.08,0,0,0,2.74,11.34,21.68,21.68,0,0,0,7.66,8.4,20.34,20.34,0,0,0,11.12,3.15q8.94,0,14.81-4a24.14,24.14,0,0,0,8.57-10.08,30.46,30.46,0,0,0,2.68-12.34A23.32,23.32,0,0,0,251.92,63,22.34,22.34,0,0,0,244.06,54.6Z"/><path d="M251.29,40.74a41.34,41.34,0,0,0-17.84-4q-13.35,0-22.89,6.35a40.55,40.55,0,0,0-14.34,16.06,44.09,44.09,0,0,0-4.78,19.58q0,12.3,5.35,20.54a33.08,33.08,0,0,0,13.86,12.23,41.44,41.44,0,0,0,17.86,4c8.88,0,16.53-2.13,22.89-6.37a40.71,40.71,0,0,0,14.34-16.06,44,44,0,0,0,4.78-19.58q0-12.3-5.37-20.54A32.91,32.91,0,0,0,251.29,40.74Zm.8,45.95a24.14,24.14,0,0,1-8.57,10.08q-5.86,4-14.81,4a20.34,20.34,0,0,1-11.12-3.15,21.68,21.68,0,0,1-7.66-8.4,24.08,24.08,0,0,1-2.74-11.34,31.56,31.56,0,0,1,2.57-12.4,23.17,23.17,0,0,1,8.35-10.07q5.77-4,14.71-4a20.9,20.9,0,0,1,11.24,3.15,22.34,22.34,0,0,1,7.86,8.4,23.32,23.32,0,0,1,2.85,11.35A30.46,30.46,0,0,1,252.09,86.69Z"/><polygon class="cls-3" points="409.6 114.44 424.3 114.44 429.96 68.55 415.26 68.55 409.6 114.44"/><path class="cls-3" d="M430.07,46.08a9.24,9.24,0,0,0-5.46-1.68,8.23,8.23,0,0,0-6,2.31,7.59,7.59,0,0,0-2.37,5.66,5.83,5.83,0,0,0,2.42,5.15,9.26,9.26,0,0,0,5.46,1.68,8.31,8.31,0,0,0,6-2.31,7.6,7.6,0,0,0,2.37-5.66A5.83,5.83,0,0,0,430.07,46.08Z"/><path class="cls-3" d="M392.54,68.68l1.89-15.54a11,11,0,0,1,2.72-6.63,7.48,7.48,0,0,1,5.48-2.2,5.66,5.66,0,0,1,4.83,2.31L415,36a16.4,16.4,0,0,0-5.89-2.83,25,25,0,0,0-6.6-.94q-9.66,0-15.66,5.6a23.75,23.75,0,0,0-7.14,14.86l-1.89,16h-7.77l-1.67,13h7.76l-4,33.09h14.69l4-33.09h11.77l1.66-13Z"/><polygon class="cls-3" points="466.62 48.38 451.9 48.38 449.5 68.34 442.36 68.34 440.99 79.78 448.13 79.78 443.93 114.44 458.64 114.44 462.84 79.78 473.96 79.78 475.33 68.34 464.19 68.34 466.62 48.38"/><path class="cls-3" d="M519.23,66.34a23.88,23.88,0,0,0-10.83,2.41,21.17,21.17,0,0,0-7.86,6.63l-.23-6.83H487l-5.57,45.89h14.69l2.32-18.69a24.29,24.29,0,0,1,4.46-12.2q3.63-4.71,8.68-4.71c2.24,0,3.83.57,4.77,1.74a6.88,6.88,0,0,1,1.2,5L514,114.44h14.71l4.2-34.35a11.87,11.87,0,0,0-3.31-9.91C527,67.62,523.56,66.34,519.23,66.34Z"/><path class="cls-3" d="M586.33,71.6c-4.35-3.44-9.66-5.14-16-5.14S559.09,67.75,555,70.32a24.19,24.19,0,0,0-9,9.77,26.62,26.62,0,0,0-2.89,11.77c0,7.85,2.24,13.75,6.72,17.75s10.6,6,18.38,6a31.08,31.08,0,0,0,7.34-1A36.63,36.63,0,0,0,583,112l-5.15-11.35c-3.14,1.69-5.81,2.54-8,2.54a13.9,13.9,0,0,1-5.4-1.06,9.35,9.35,0,0,1-4.26-3.46l34.35-8.51Q592.84,76.74,586.33,71.6ZM557.87,90.49v-.31a13.19,13.19,0,0,1,3-8.72c2-2.38,5-3.57,9-3.57a8.92,8.92,0,0,1,5.66,1.89A9.32,9.32,0,0,1,578.76,85Z"/><path class="cls-3" d="M624.54,76.32q5.16,0,9.68,4.51l6.61-8.29a22.5,22.5,0,0,0-8.55-4.68,37.24,37.24,0,0,0-10-1.31c-4.56,0-8.18.89-10.89,2.63a14.28,14.28,0,0,0-5.6,6.25,17.29,17.29,0,0,0-1.58,7,12.78,12.78,0,0,0,2.47,7.71,16.25,16.25,0,0,0,7.71,5.41l2,.74a31.08,31.08,0,0,1,5.29,2.37,3.07,3.07,0,0,1,1.63,2.77,3.71,3.71,0,0,1-1.15,2.74c-.77.76-2.1,1.15-4,1.15a16.77,16.77,0,0,1-5.78-1.09c-2-.74-4.12-2.52-6.51-5.31l-7,7.66a19.29,19.29,0,0,0,9.51,7,33,33,0,0,0,10.12,1.83A23.08,23.08,0,0,0,629.28,113a16.08,16.08,0,0,0,9-14.63q0-7.89-9.25-11.77a21.94,21.94,0,0,0-2.93-1.06,27,27,0,0,1-5.25-2.31,3.16,3.16,0,0,1-1.69-2.83,3.85,3.85,0,0,1,1.26-2.94A6,6,0,0,1,624.54,76.32Z"/><path class="cls-3" d="M676.11,86.61a22.68,22.68,0,0,0-2.94-1.06,27.9,27.9,0,0,1-5.25-2.31,3.2,3.2,0,0,1-1.69-2.83,3.85,3.85,0,0,1,1.26-2.94,6.08,6.08,0,0,1,4.11-1.15q5.13,0,9.66,4.51l6.61-8.29a22.42,22.42,0,0,0-8.55-4.68,37.24,37.24,0,0,0-10-1.31c-4.56,0-8.18.89-10.87,2.63a14.33,14.33,0,0,0-5.62,6.25,17.27,17.27,0,0,0-1.57,7,12.77,12.77,0,0,0,2.46,7.71,16.25,16.25,0,0,0,7.71,5.41l2,.74a32.23,32.23,0,0,1,5.31,2.37,3.11,3.11,0,0,1,1.63,2.77,3.76,3.76,0,0,1-1.16,2.74c-.76.76-2.1,1.15-4,1.15a16.79,16.79,0,0,1-5.8-1.09c-2-.74-4.12-2.52-6.49-5.31l-7,7.66a19.37,19.37,0,0,0,9.51,7,33,33,0,0,0,10.14,1.83A23,23,0,0,0,676.32,113a16.23,16.23,0,0,0,6.77-6.23,16.51,16.51,0,0,0,2.26-8.4Q685.35,90.49,676.11,86.61Z"/><polygon points="364.96 19.96 355.99 0 343.19 17.75 346.46 18.08 344.21 37.52 344.22 37.52 338.88 84.12 290.99 34.45 290.36 34.45 280.49 114.78 295.93 114.78 301.18 69.09 349.28 117.92 349.68 117.92 359.56 37.48 359.55 37.48 361.62 19.62 364.96 19.96"/></g></g></svg>