<svg xmlns="http://www.w3.org/2000/svg" xmlns:xlink="http://www.w3.org/1999/xlink" viewBox="0 0 827.3 688.85"><defs><style>.cls-1{fill:url(#New_Gradient_Swatch_1);}</style><linearGradient id="New_Gradient_Swatch_1" y1="344.43" x2="827.3" y2="344.43" gradientUnits="userSpaceOnUse"><stop offset="0" stop-color="#ff7e15"/><stop offset="1" stop-color="#ed9c00"/></linearGradient></defs><g id="Layer_2" data-name="Layer 2"><g id="Layer_1-2" data-name="Layer 1"><path class="cls-1" d="M825.83,187c-13.24-.9-26.48-2.06-39.72-2.85-15.32-.91-30.61-2.33-45.9-3.53-42.44-2.67-84.87-5.92-127.16-10.43-32.17-3.43-64.44-7.34-96.15-13.89a1456.34,1456.34,0,0,1-216-62.36Q248.18,74.19,197.12,50.41q-25.49-11.89-50.51-24.77-13-6.7-25.87-13.67C117.15,10,100.17,3.58,99.07,0c29.59,96.28,118.49,162.7,210.48,203.72,102.11,45.54,212.86,68,323.18,86.18-22.65,38.79-59.21,67.28-96.18,92.79-112.14,77.39-235.84,136.4-361,190.22,22.45-45.36,39.71-94,43.39-144.5s-7.1-103.06-36.48-144.27c12.83,75.54-8.56,153.7-45,221.11S50.31,631.07,0,688.85a1065.58,1065.58,0,0,0,372.83-110C470,529.53,566.73,473.55,647.19,400.23c68.22-62.18,132.66-132.71,180.11-213.15Z"/></g></g></svg>